<?xml version="1.0" encoding="UTF-8"?>
<svg width="800" height="600" xmlns="http://www.w3.org/2000/svg">
    <!-- Start -->
    <rect x="350" y="20" width="100" height="50" rx="10" fill="#4CAF50" stroke="black"/>
    <text x="400" y="45" text-anchor="middle" fill="white">Start</text>
    
    <!-- Initialize -->
    <rect x="300" y="100" width="200" height="50" rx="10" fill="#2196F3" stroke="black"/>
    <text x="400" y="130" text-anchor="middle" fill="white">Initialize Server</text>
    <text x="400" y="145" text-anchor="middle" fill="white" font-size="10">Find ServerProcess Type</text>
    
    <!-- Message Received -->
    <rect x="300" y="180" width="200" height="50" rx="10" fill="#FFC107" stroke="black"/>
    <text x="400" y="210" text-anchor="middle">Receive Message</text>
    
    <!-- Decision -->
    <path d="M300,280 L400,330 L500,280 L400,230 Z" fill="#FF5722" stroke="black"/>
    <text x="400" y="285" text-anchor="middle">Is DYNA_CONN_REQ?</text>
    
    <!-- Yes Branch -->
    <rect x="100" y="350" width="200" height="80" rx="10" fill="#9C27B0" stroke="black"/>
    <text x="200" y="375" text-anchor="middle" fill="white">Create New Connection</text>
    <text x="200" y="390" text-anchor="middle" fill="white" font-size="10">1. Generate unique name</text>
    <text x="200" y="405" text-anchor="middle" fill="white" font-size="10">2. Create ServerProcess</text>
    <text x="200" y="420" text-anchor="middle" fill="white" font-size="10">3. Send packet to new process</text>
    
    <!-- No Branch -->
    <rect x="500" y="350" width="200" height="80" rx="10" fill="#795548" stroke="black"/>
    <text x="600" y="375" text-anchor="middle" fill="white">Handle Existing Connection</text>
    <text x="600" y="390" text-anchor="middle" fill="white" font-size="10">1. Get ServerProcess ID</text>
    <text x="600" y="405" text-anchor="middle" fill="white" font-size="10">2. Find module by ID</text>
    <text x="600" y="420" text-anchor="middle" fill="white" font-size="10">3. Forward or delete packet</text>
    
    <!-- Arrows -->
    <defs>
        <marker id="arrowhead" markerWidth="10" markerHeight="7" refX="9" refY="3.5" orient="auto">
            <polygon points="0 0, 10 3.5, 0 7" fill="black"/>
        </marker>
    </defs>
    
    <line x1="400" y1="70" x2="400" y2="100" stroke="black" marker-end="url(#arrowhead)"/>
    <line x1="400" y1="150" x2="400" y2="180" stroke="black" marker-end="url(#arrowhead)"/>
    <line x1="400" y1="230" x2="400" y2="280" stroke="black" marker-end="url(#arrowhead)"/>
    <line x1="300" y1="280" x2="200" y2="350" stroke="black" marker-end="url(#arrowhead)"/>
    <line x1="500" y1="280" x2="600" y2="350" stroke="black" marker-end="url(#arrowhead)"/>
    
    <!-- Labels -->
    <text x="250" y="300" text-anchor="middle">Yes</text>
    <text x="550" y="300" text-anchor="middle">No</text>
</svg>